# xmcd CD database file
#
# Track frame offsets:
#	150
#	14067
#	34669
#	46543
#	69566
#	85453
#	101904
#	118174
#	135978
#	164976
#	185359
#	207240
#	223379
#
# Disc length: 3244 seconds
#
# Revision: 0
# Processed by: cddbd v1.5.1PL2 Copyright (c) Steve Scherf et al.
# Submitted via: CDex 1.51
#
DISCID=c50caa0d
DTITLE=Def Tech - 1×2　(Limited Edition)
DYEAR=2005
DGENRE=Pop/Funk
TTITLE0=Consolidation Song
TTITLE1=Deep Blue
TTITLE2=Emergency
TTITLE3=Future Child
TTITLE4=High on Life
TTITLE5=In Outside
TTITLE6=Jah Live
TTITLE7=KONOMAMA Def Tech reintroducing RIZE
TTITLE8=Lokahi Lani
TTITLE9=Micro's House
TTITLE10=My Way
TTITLE11=Pacific Island Music
TTITLE12=Quality Of Life
EXTD=YEAR: 2005
EXTT0=
EXTT1=
EXTT2=
EXTT3=
EXTT4=
EXTT5=
EXTT6=
EXTT7=
EXTT8=
EXTT9=
EXTT10=
EXTT11=
EXTT12=
PLAYORDER=
